# Blender v2.91.0 OBJ File: 'Coin.blend'
# www.blender.org
mtllib Coin.mtl
o Coin
v 0.030108 0.000000 -0.083071
v 0.030108 -0.028412 -0.078062
v 0.030108 -0.053397 -0.063636
v 0.030108 -0.071942 -0.041536
v 0.030108 -0.081809 -0.014425
v 0.030108 -0.081809 0.014425
v 0.030108 -0.071942 0.041536
v 0.030108 -0.053397 0.063636
v 0.030108 -0.028412 0.078062
v 0.030108 -0.000000 0.083071
v 0.030108 0.028412 0.078062
v 0.030108 0.053397 0.063636
v 0.030108 0.071942 0.041536
v 0.030108 0.081809 0.014425
v 0.030108 0.081809 -0.014425
v 0.030108 0.071942 -0.041536
v 0.030108 0.053397 -0.063636
v 0.030108 0.028412 -0.078062
v 0.031109 -0.039877 -0.109560
v 0.031109 0.000000 -0.116592
v 0.031109 -0.074944 -0.089314
v 0.031109 -0.100971 -0.058296
v 0.031109 -0.114820 -0.020246
v 0.031109 -0.114820 0.020246
v 0.031109 -0.100971 0.058296
v 0.031109 -0.074944 0.089314
v 0.031109 -0.039877 0.109560
v 0.031109 -0.000000 0.116592
v 0.031109 0.039877 0.109560
v 0.031109 0.074944 0.089314
v 0.031109 0.100971 0.058296
v 0.031109 0.114820 0.020246
v 0.031109 0.114820 -0.020246
v 0.031109 0.100971 -0.058296
v 0.031109 0.074944 -0.089314
v 0.031109 0.039877 -0.109560
v 0.008474 -0.027770 -0.076298
v 0.008474 0.000000 -0.081194
v 0.008474 -0.052191 -0.062199
v 0.008474 -0.070316 -0.040597
v 0.008474 -0.079961 -0.014099
v 0.008474 -0.079961 0.014099
v 0.008474 -0.070316 0.040597
v 0.008474 -0.052191 0.062199
v 0.008474 -0.027770 0.076298
v 0.008474 -0.000000 0.081194
v 0.008474 0.027770 0.076298
v 0.008474 0.052191 0.062199
v 0.008474 0.070316 0.040597
v 0.008474 0.079961 0.014099
v 0.008474 0.079961 -0.014099
v 0.008474 0.070316 -0.040597
v 0.008474 0.052191 -0.062198
v 0.008474 0.027770 -0.076298
v -0.030108 0.000000 -0.083071
v -0.030108 -0.028412 -0.078062
v -0.030108 -0.053397 -0.063636
v -0.030108 -0.071942 -0.041536
v -0.030108 -0.081809 -0.014425
v -0.030108 -0.081809 0.014425
v -0.030108 -0.071942 0.041536
v -0.030108 -0.053397 0.063636
v -0.030108 -0.028412 0.078062
v -0.030108 -0.000000 0.083071
v -0.030108 0.028412 0.078062
v -0.030108 0.053397 0.063636
v -0.030108 0.071942 0.041536
v -0.030108 0.081809 0.014425
v -0.030108 0.081809 -0.014425
v -0.030108 0.071942 -0.041536
v -0.030108 0.053397 -0.063636
v -0.030108 0.028412 -0.078062
v 0.000000 0.000000 -0.118316
v 0.000000 -0.040466 -0.111181
v 0.000000 -0.076052 -0.090635
v 0.000000 -0.102465 -0.059158
v 0.000000 -0.116519 -0.020545
v 0.000000 -0.116519 0.020545
v 0.000000 -0.102465 0.059158
v 0.000000 -0.076052 0.090635
v 0.000000 -0.040466 0.111181
v 0.000000 -0.000000 0.118316
v 0.000000 0.040466 0.111181
v 0.000000 0.076052 0.090635
v 0.000000 0.102465 0.059158
v 0.000000 0.116519 0.020545
v 0.000000 0.116519 -0.020545
v 0.000000 0.102465 -0.059158
v 0.000000 0.076052 -0.090635
v 0.000000 0.040467 -0.111181
v -0.031109 -0.039877 -0.109560
v -0.031109 0.000000 -0.116592
v -0.031109 -0.074944 -0.089314
v -0.031109 -0.100971 -0.058296
v -0.031109 -0.114820 -0.020246
v -0.031109 -0.114820 0.020246
v -0.031109 -0.100971 0.058296
v -0.031109 -0.074944 0.089314
v -0.031109 -0.039877 0.109560
v -0.031109 -0.000000 0.116592
v -0.031109 0.039877 0.109560
v -0.031109 0.074944 0.089314
v -0.031109 0.100971 0.058296
v -0.031109 0.114820 0.020246
v -0.031109 0.114820 -0.020246
v -0.031109 0.100971 -0.058296
v -0.031109 0.074944 -0.089314
v -0.031109 0.039877 -0.109560
v -0.008474 -0.027770 -0.076298
v -0.008474 0.000000 -0.081194
v -0.008474 -0.052191 -0.062199
v -0.008474 -0.070316 -0.040597
v -0.008474 -0.079961 -0.014099
v -0.008474 -0.079961 0.014099
v -0.008474 -0.070316 0.040597
v -0.008474 -0.052191 0.062199
v -0.008474 -0.027770 0.076298
v -0.008474 -0.000000 0.081194
v -0.008474 0.027770 0.076298
v -0.008474 0.052191 0.062199
v -0.008474 0.070316 0.040597
v -0.008474 0.079961 0.014099
v -0.008474 0.079961 -0.014099
v -0.008474 0.070316 -0.040597
v -0.008474 0.052191 -0.062198
v -0.008474 0.027770 -0.076298
v 0.027359 0.040467 -0.111181
v -0.027359 0.040467 -0.111181
v 0.027359 0.000000 -0.118316
v -0.027359 0.000000 -0.118316
v 0.027359 0.076052 -0.090635
v -0.027359 0.076052 -0.090635
v 0.027359 0.102465 -0.059158
v -0.027359 0.102465 -0.059158
v 0.027359 0.116519 -0.020545
v -0.027359 0.116519 -0.020545
v 0.027359 0.116519 0.020545
v -0.027359 0.116519 0.020545
v 0.027359 0.102465 0.059158
v -0.027359 0.102465 0.059158
v 0.027359 0.076052 0.090635
v -0.027359 0.076052 0.090635
v 0.027359 0.040466 0.111181
v -0.027359 0.040466 0.111181
v 0.027359 -0.000000 0.118316
v -0.027359 -0.000000 0.118316
v 0.027359 -0.040466 0.111181
v -0.027359 -0.040466 0.111181
v 0.027359 -0.076052 0.090635
v -0.027359 -0.076052 0.090635
v 0.027359 -0.102465 0.059158
v -0.027359 -0.102465 0.059158
v 0.027359 -0.116518 0.020545
v -0.027359 -0.116518 0.020545
v 0.027359 -0.116519 -0.020545
v -0.027359 -0.116519 -0.020545
v 0.027359 -0.102465 -0.059158
v -0.027359 -0.102465 -0.059158
v 0.027359 -0.076052 -0.090635
v -0.027359 -0.076052 -0.090635
v 0.027359 -0.040466 -0.111181
v -0.027359 -0.040466 -0.111181
vt 0.275148 0.066582
vt 0.274995 0.099934
vt 0.222861 0.099921
vt 0.223011 0.066730
vt 0.170970 0.099918
vt 0.171108 0.066877
vt 0.119280 0.099972
vt 0.119370 0.067024
vt 0.067667 0.100372
vt 0.067507 0.067170
vt 0.014991 0.102287
vt 0.014045 0.067322
vt 0.978734 0.064588
vt 0.978465 0.101726
vt 0.921209 0.100251
vt 0.921637 0.064750
vt 0.865612 0.100115
vt 0.865851 0.064908
vt 0.810558 0.100087
vt 0.810734 0.065065
vt 0.755812 0.100070
vt 0.755975 0.065220
vt 0.701338 0.100054
vt 0.701498 0.065374
vt 0.647130 0.100039
vt 0.647289 0.065528
vt 0.593186 0.100023
vt 0.593345 0.065681
vt 0.539506 0.100008
vt 0.539663 0.065833
vt 0.486086 0.099993
vt 0.486243 0.065984
vt 0.432926 0.099978
vt 0.433082 0.066135
vt 0.380026 0.099963
vt 0.380181 0.066285
vt 0.944513 0.994619
vt 0.944721 0.948345
vt 0.979583 0.940660
vt 0.979380 0.985889
vt 0.327382 0.099949
vt 0.327537 0.066434
vt 0.754825 0.552879
vt 0.737564 0.452805
vt 0.848643 0.412840
vt 0.872874 0.553315
vt 0.687116 0.364671
vt 0.777827 0.289124
vt 0.609566 0.299106
vt 0.668968 0.197089
vt 0.514268 0.264018
vt 0.535196 0.147838
vt 0.412717 0.263641
vt 0.392646 0.147309
vt 0.317160 0.298019
vt 0.258512 0.195567
vt 0.239124 0.363007
vt 0.148972 0.286792
vt 0.188021 0.450764
vt 0.077239 0.409979
vt 0.170014 0.550708
vt 0.051964 0.550272
vt 0.187275 0.650782
vt 0.076196 0.690747
vt 0.237723 0.738916
vt 0.147012 0.814463
vt 0.315272 0.804481
vt 0.255871 0.906497
vt 0.410569 0.839567
vt 0.389643 0.955747
vt 0.512120 0.839943
vt 0.532192 0.956275
vt 0.607676 0.805564
vt 0.666324 0.908016
vt 0.685712 0.740577
vt 0.775863 0.816793
vt 0.736817 0.652821
vt 0.847598 0.693607
vt 0.644248 0.656092
vt 0.597130 0.712245
vt 0.533647 0.748897
vt 0.461458 0.761626
vt 0.389268 0.748897
vt 0.325786 0.712245
vt 0.278668 0.656092
vt 0.253597 0.587209
vt 0.253597 0.513906
vt 0.278668 0.445024
vt 0.325786 0.388871
vt 0.389268 0.352219
vt 0.461458 0.339490
vt 0.533647 0.352219
vt 0.597130 0.388871
vt 0.644248 0.445024
vt 0.669319 0.513906
vt 0.669319 0.587209
vt 0.945973 0.670698
vt 0.946181 0.624423
vt 0.981010 0.624057
vt 0.980806 0.669286
vt 0.948058 0.207952
vt 0.948267 0.161678
vt 0.983049 0.171768
vt 0.982845 0.216997
vt 0.945764 0.716972
vt 0.980603 0.714515
vt 0.947850 0.254227
vt 0.982641 0.262226
vt 0.945555 0.763247
vt 0.980399 0.759744
vt 0.947641 0.300501
vt 0.982437 0.307455
vt 0.945347 0.809521
vt 0.980195 0.804973
vt 0.946807 0.485600
vt 0.947015 0.439325
vt 0.981826 0.443142
vt 0.981622 0.488371
vt 0.947432 0.346776
vt 0.982233 0.352684
vt 0.945138 0.855796
vt 0.979991 0.850202
vt 0.946598 0.531874
vt 0.981418 0.533599
vt 0.947224 0.393050
vt 0.982029 0.397913
vt 0.944930 0.902070
vt 0.979787 0.895431
vt 0.946390 0.578149
vt 0.981214 0.578828
vt 0.222655 0.033540
vt 0.274788 0.033232
vt 0.170764 0.033838
vt 0.119075 0.034076
vt 0.067461 0.033968
vt 0.014773 0.032352
vt 0.920989 0.029252
vt 0.978234 0.027453
vt 0.865394 0.029704
vt 0.810340 0.030044
vt 0.755595 0.030371
vt 0.701122 0.030696
vt 0.646916 0.031018
vt 0.592973 0.031339
vt 0.539293 0.031659
vt 0.485874 0.031976
vt 0.432716 0.032293
vt 0.379816 0.032607
vt 0.947517 0.207943
vt 0.982305 0.216986
vt 0.982101 0.262215
vt 0.947309 0.254217
vt 0.327174 0.032920
vt 0.173375 0.552356
vt 0.055325 0.552347
vt 0.080086 0.411964
vt 0.191015 0.452348
vt 0.151367 0.288515
vt 0.241795 0.364403
vt 0.260572 0.196890
vt 0.319591 0.299129
vt 0.394528 0.148140
vt 0.415020 0.264399
vt 0.537079 0.148146
vt 0.516572 0.264402
vt 0.671030 0.196908
vt 0.611998 0.299138
vt 0.780225 0.288543
vt 0.689788 0.364417
vt 0.851494 0.411998
vt 0.740560 0.452365
vt 0.876239 0.552384
vt 0.758189 0.552374
vt 0.851477 0.692766
vt 0.740549 0.652382
vt 0.780196 0.816215
vt 0.689769 0.740328
vt 0.670992 0.907841
vt 0.611973 0.805602
vt 0.537036 0.956591
vt 0.516544 0.840332
vt 0.394485 0.956585
vt 0.414992 0.840329
vt 0.260534 0.907823
vt 0.319566 0.805593
vt 0.151338 0.816188
vt 0.241776 0.740314
vt 0.080070 0.692733
vt 0.191004 0.652366
vt 0.647160 0.445024
vt 0.672232 0.513906
vt 0.672232 0.587210
vt 0.647160 0.656092
vt 0.600042 0.712245
vt 0.536560 0.748897
vt 0.464370 0.761625
vt 0.392181 0.748897
vt 0.328699 0.712245
vt 0.281580 0.656092
vt 0.256509 0.587209
vt 0.256509 0.513906
vt 0.281580 0.445024
vt 0.328699 0.388871
vt 0.392181 0.352219
vt 0.464370 0.339490
vt 0.536560 0.352219
vt 0.600042 0.388871
vt 0.946057 0.531864
vt 0.980877 0.533589
vt 0.980673 0.578818
vt 0.945849 0.578138
vt 0.947726 0.161668
vt 0.982509 0.171757
vt 0.946266 0.485589
vt 0.981081 0.488360
vt 0.944180 0.948334
vt 0.979041 0.940650
vt 0.978837 0.985879
vt 0.943972 0.994609
vt 0.946474 0.439315
vt 0.981285 0.443131
vt 0.944389 0.902060
vt 0.979245 0.895421
vt 0.946683 0.393040
vt 0.981489 0.397902
vt 0.945223 0.716962
vt 0.980061 0.714505
vt 0.979857 0.759734
vt 0.945014 0.763236
vt 0.944597 0.855785
vt 0.979449 0.850192
vt 0.946891 0.346766
vt 0.981693 0.352673
vt 0.945432 0.670687
vt 0.980265 0.669276
vt 0.944806 0.809511
vt 0.979653 0.804963
vt 0.947100 0.300491
vt 0.981897 0.307444
vt 0.945640 0.624413
vt 0.980469 0.624047
vt 0.327141 0.027803
vt 0.379783 0.027465
vt 0.327381 0.105066
vt 0.274994 0.105027
vt 0.222860 0.104989
vt 0.274755 0.028139
vt 0.432682 0.027125
vt 0.380024 0.105106
vt 0.485841 0.026784
vt 0.432925 0.105146
vt 0.539259 0.026441
vt 0.486084 0.105186
vt 0.592939 0.026096
vt 0.539504 0.105226
vt 0.646881 0.025749
vt 0.593185 0.105267
vt 0.701088 0.025401
vt 0.647128 0.105308
vt 0.755560 0.025050
vt 0.701336 0.105349
vt 0.810304 0.024695
vt 0.755810 0.105391
vt 0.865348 0.024317
vt 0.810555 0.105436
vt 0.920861 0.023776
vt 0.865600 0.105502
vt 0.977605 0.021842
vt 0.921115 0.105728
vt 0.015337 0.027295
vt 0.067552 0.028959
vt 0.977871 0.107340
vt 0.119068 0.029047
vt 0.067789 0.105381
vt 0.015585 0.107340
vt 0.170736 0.028792
vt 0.119304 0.105002
vt 0.222622 0.028472
vt 0.170973 0.104963
vn 0.0000 0.0000 -1.0000
vn 0.2090 0.0000 -0.9779
vn 0.2090 -0.3345 -0.9189
vn 0.0000 -0.3420 -0.9397
vn 0.2090 -0.6286 -0.7491
vn 0.0000 -0.6428 -0.7660
vn 0.2090 -0.8469 -0.4890
vn 0.0000 -0.8660 -0.5000
vn 0.2090 -0.9630 -0.1698
vn -0.0000 -0.9848 -0.1736
vn 0.2090 -0.9630 0.1698
vn 0.0000 -0.9848 0.1736
vn 0.2090 -0.8469 0.4890
vn -0.0000 -0.8660 0.5000
vn 0.2090 -0.6286 0.7491
vn -0.0000 -0.6428 0.7660
vn 0.2090 -0.3345 0.9189
vn -0.0000 -0.3420 0.9397
vn 0.2090 -0.0000 0.9779
vn -0.0000 -0.0000 1.0000
vn 0.2090 0.3345 0.9189
vn -0.0000 0.3420 0.9397
vn 0.2090 0.6286 0.7491
vn -0.0000 0.6428 0.7660
vn 0.2090 0.8469 0.4890
vn -0.0000 0.8660 0.5000
vn 0.2090 0.9630 0.1698
vn 0.0000 0.9848 0.1736
vn 0.2090 0.9631 -0.1698
vn -0.0000 0.9848 -0.1736
vn 0.2090 0.8469 -0.4890
vn 0.0000 0.8660 -0.5000
vn 0.2090 0.6286 -0.7491
vn 0.0000 0.6428 -0.7660
vn 0.0864 -0.8628 -0.4981
vn 0.0864 -0.6404 -0.7632
vn 0.2090 0.3345 -0.9189
vn 0.0000 0.3420 -0.9397
vn 0.9996 0.0000 0.0299
vn 0.9996 0.0102 0.0281
vn 0.8227 -0.1944 -0.5341
vn 0.8227 0.0000 -0.5684
vn 0.9996 0.0192 0.0229
vn 0.8227 -0.3654 -0.4354
vn 0.9996 0.0259 0.0149
vn 0.8227 -0.4923 -0.2842
vn 0.9996 0.0294 0.0052
vn 0.8227 -0.5598 -0.0987
vn 0.9996 0.0294 -0.0052
vn 0.8227 -0.5598 0.0987
vn 0.9996 0.0259 -0.0149
vn 0.8227 -0.4923 0.2842
vn 0.9996 0.0192 -0.0229
vn 0.8227 -0.3654 0.4354
vn 0.9996 0.0102 -0.0281
vn 0.8227 -0.1944 0.5341
vn 0.9996 0.0000 -0.0299
vn 0.8227 -0.0000 0.5684
vn 0.9996 -0.0102 -0.0281
vn 0.8227 0.1944 0.5341
vn 0.9996 -0.0192 -0.0229
vn 0.8227 0.3654 0.4354
vn 0.9996 -0.0259 -0.0149
vn 0.8227 0.4923 0.2842
vn 0.9996 -0.0294 -0.0052
vn 0.8227 0.5598 0.0987
vn 0.9996 -0.0294 0.0052
vn 0.8227 0.5598 -0.0987
vn 0.9996 -0.0259 0.0149
vn 0.8227 0.4923 -0.2842
vn 0.9996 -0.0192 0.0229
vn 0.8227 0.3654 -0.4354
vn 0.9996 -0.0102 0.0281
vn 0.8227 0.1944 -0.5341
vn 1.0000 0.0000 0.0000
vn 0.0864 0.9811 -0.1730
vn 0.0864 0.9811 0.1730
vn 0.0864 -0.9811 -0.1730
vn 0.0864 0.8628 -0.4981
vn 0.0864 -0.9811 0.1730
vn 0.0864 0.6404 -0.7632
vn 0.0864 -0.8628 0.4981
vn 0.0864 0.3407 -0.9362
vn 0.0864 0.3407 0.9362
vn 0.0864 -0.0000 0.9963
vn 0.0864 -0.6404 0.7632
vn 0.0864 0.0000 -0.9963
vn 0.0864 0.6404 0.7632
vn 0.0864 -0.3407 0.9362
vn 0.0864 -0.3407 -0.9362
vn 0.0864 0.8628 0.4981
vn -0.2090 -0.3345 -0.9189
vn -0.2090 0.0000 -0.9779
vn -0.2090 -0.6286 -0.7491
vn -0.2090 -0.8469 -0.4890
vn -0.2090 -0.9630 -0.1698
vn -0.2090 -0.9630 0.1698
vn -0.2090 -0.8469 0.4890
vn -0.2090 -0.6286 0.7491
vn -0.2090 -0.3345 0.9189
vn -0.2090 -0.0000 0.9779
vn -0.2090 0.3345 0.9189
vn -0.2090 0.6286 0.7491
vn -0.2090 0.8469 0.4890
vn -0.2090 0.9630 0.1698
vn -0.2090 0.9631 -0.1698
vn -0.2090 0.8469 -0.4890
vn -0.2090 0.6286 -0.7491
vn -0.0864 -0.8628 -0.4981
vn -0.0864 -0.6404 -0.7632
vn -0.2090 0.3345 -0.9189
vn -0.9996 0.0000 0.0299
vn -0.8227 0.0000 -0.5684
vn -0.8227 -0.1944 -0.5341
vn -0.9996 0.0102 0.0281
vn -0.8227 -0.3654 -0.4354
vn -0.9996 0.0192 0.0229
vn -0.8227 -0.4923 -0.2842
vn -0.9996 0.0259 0.0149
vn -0.8227 -0.5598 -0.0987
vn -0.9996 0.0294 0.0052
vn -0.8227 -0.5598 0.0987
vn -0.9996 0.0294 -0.0052
vn -0.8227 -0.4923 0.2842
vn -0.9996 0.0259 -0.0149
vn -0.8227 -0.3654 0.4354
vn -0.9996 0.0192 -0.0229
vn -0.8227 -0.1944 0.5341
vn -0.9996 0.0102 -0.0281
vn -0.8227 -0.0000 0.5684
vn -0.9996 0.0000 -0.0299
vn -0.8227 0.1944 0.5341
vn -0.9996 -0.0102 -0.0281
vn -0.8227 0.3654 0.4354
vn -0.9996 -0.0192 -0.0229
vn -0.8227 0.4923 0.2842
vn -0.9996 -0.0259 -0.0149
vn -0.8227 0.5598 0.0987
vn -0.9996 -0.0294 -0.0052
vn -0.8227 0.5598 -0.0987
vn -0.9996 -0.0294 0.0052
vn -0.8227 0.4923 -0.2842
vn -0.9996 -0.0259 0.0149
vn -0.8227 0.3654 -0.4354
vn -0.9996 -0.0192 0.0229
vn -0.8227 0.1944 -0.5341
vn -0.9996 -0.0102 0.0281
vn -1.0000 0.0000 0.0000
vn -0.0864 0.9811 -0.1730
vn -0.0864 0.9811 0.1730
vn -0.0864 -0.9811 -0.1730
vn -0.0864 0.8628 -0.4981
vn -0.0864 -0.9811 0.1730
vn -0.0864 0.6404 -0.7632
vn -0.0864 -0.8628 0.4981
vn -0.0864 0.3407 -0.9362
vn -0.0864 0.3407 0.9362
vn -0.0864 -0.0000 0.9963
vn -0.0864 -0.6404 0.7632
vn -0.0864 0.0000 -0.9963
vn -0.0864 0.6404 0.7632
vn -0.0864 -0.3407 0.9362
vn -0.0864 -0.3407 -0.9362
vn -0.0864 0.8628 0.4981
usemtl Bake
s 1
f 73/1/1 129/2/2 161/3/3 74/4/4
f 74/4/4 161/3/3 159/5/5 75/6/6
f 75/6/6 159/5/5 157/7/7 76/8/8
f 76/8/8 157/7/7 155/9/9 77/10/10
f 77/10/10 155/9/9 153/11/11 78/12/12
f 78/13/12 153/14/11 151/15/13 79/16/14
f 79/16/14 151/15/13 149/17/15 80/18/16
f 80/18/16 149/17/15 147/19/17 81/20/18
f 81/20/18 147/19/17 145/21/19 82/22/20
f 82/22/20 145/21/19 143/23/21 83/24/22
f 83/24/22 143/23/21 141/25/23 84/26/24
f 84/26/24 141/25/23 139/27/25 85/28/26
f 85/28/26 139/27/25 137/29/27 86/30/28
f 86/30/28 137/29/27 135/31/29 87/32/30
f 87/32/30 135/31/29 133/33/31 88/34/32
f 88/34/32 133/33/31 131/35/33 89/36/34
f 13/37/35 12/38/36 48/39/36 49/40/35
f 89/36/34 131/35/33 127/41/37 90/42/38
f 90/42/38 127/41/37 129/2/2 73/1/1
f 1/43/39 2/44/40 19/45/41 20/46/42
f 2/44/40 3/47/43 21/48/44 19/45/41
f 3/47/43 4/49/45 22/50/46 21/48/44
f 4/49/45 5/51/47 23/52/48 22/50/46
f 5/51/47 6/53/49 24/54/50 23/52/48
f 6/53/49 7/55/51 25/56/52 24/54/50
f 7/55/51 8/57/53 26/58/54 25/56/52
f 8/57/53 9/59/55 27/60/56 26/58/54
f 9/59/55 10/61/57 28/62/58 27/60/56
f 10/61/57 11/63/59 29/64/60 28/62/58
f 11/63/59 12/65/61 30/66/62 29/64/60
f 12/65/61 13/67/63 31/68/64 30/66/62
f 13/67/63 14/69/65 32/70/66 31/68/64
f 14/69/65 15/71/67 33/72/68 32/70/66
f 15/71/67 16/73/69 34/74/70 33/72/68
f 16/73/69 17/75/71 35/76/72 34/74/70
f 17/75/71 18/77/73 36/78/74 35/76/72
f 18/77/73 1/43/39 20/46/42 36/78/74
f 37/79/75 38/80/75 54/81/75 53/82/75 52/83/75 51/84/75 50/85/75 49/86/75 48/87/75 47/88/75 46/89/75 45/90/75 44/91/75 43/92/75 42/93/75 41/94/75 40/95/75 39/96/75
f 6/97/76 5/98/77 41/99/77 42/100/76
f 14/101/78 13/102/35 49/103/35 50/104/78
f 7/105/79 6/97/76 42/100/76 43/106/79
f 15/107/80 14/101/78 50/104/78 51/108/80
f 8/109/81 7/105/79 43/106/79 44/110/81
f 16/111/82 15/107/80 51/108/80 52/112/82
f 9/113/83 8/109/81 44/110/81 45/114/83
f 2/115/84 1/116/85 38/117/85 37/118/84
f 17/119/86 16/111/82 52/112/82 53/120/86
f 10/121/87 9/113/83 45/114/83 46/122/87
f 3/123/88 2/115/84 37/118/84 39/124/88
f 18/125/89 17/119/86 53/120/86 54/126/89
f 11/127/90 10/121/87 46/122/87 47/128/90
f 4/129/91 3/123/88 39/124/88 40/130/91
f 1/116/85 18/125/89 54/126/89 38/117/85
f 12/38/36 11/127/90 47/128/90 48/39/36
f 5/98/77 4/129/91 40/130/91 41/99/77
f 73/1/1 74/4/4 162/131/92 130/132/93
f 74/4/4 75/6/6 160/133/94 162/131/92
f 75/6/6 76/8/8 158/134/95 160/133/94
f 76/8/8 77/10/10 156/135/96 158/134/95
f 77/10/10 78/12/12 154/136/97 156/135/96
f 78/13/12 79/16/14 152/137/98 154/138/97
f 79/16/14 80/18/16 150/139/99 152/137/98
f 80/18/16 81/20/18 148/140/100 150/139/99
f 81/20/18 82/22/20 146/141/101 148/140/100
f 82/22/20 83/24/22 144/142/102 146/141/101
f 83/24/22 84/26/24 142/143/103 144/142/102
f 84/26/24 85/28/26 140/144/104 142/143/103
f 85/28/26 86/30/28 138/145/105 140/144/104
f 86/30/28 87/32/30 136/146/106 138/145/105
f 87/32/30 88/34/32 134/147/107 136/146/106
f 88/34/32 89/36/34 132/148/108 134/147/107
f 67/149/109 121/150/109 120/151/110 66/152/110
f 89/36/34 90/42/38 128/153/111 132/148/108
f 90/42/38 73/1/1 130/132/93 128/153/111
f 55/154/112 92/155/113 91/156/114 56/157/115
f 56/157/115 91/156/114 93/158/116 57/159/117
f 57/159/117 93/158/116 94/160/118 58/161/119
f 58/161/119 94/160/118 95/162/120 59/163/121
f 59/163/121 95/162/120 96/164/122 60/165/123
f 60/165/123 96/164/122 97/166/124 61/167/125
f 61/167/125 97/166/124 98/168/126 62/169/127
f 62/169/127 98/168/126 99/170/128 63/171/129
f 63/171/129 99/170/128 100/172/130 64/173/131
f 64/173/131 100/172/130 101/174/132 65/175/133
f 65/175/133 101/174/132 102/176/134 66/177/135
f 66/177/135 102/176/134 103/178/136 67/179/137
f 67/179/137 103/178/136 104/180/138 68/181/139
f 68/181/139 104/180/138 105/182/140 69/183/141
f 69/183/141 105/182/140 106/184/142 70/185/143
f 70/185/143 106/184/142 107/186/144 71/187/145
f 71/187/145 107/186/144 108/188/146 72/189/147
f 72/189/147 108/188/146 92/155/113 55/154/112
f 109/190/148 111/191/148 112/192/148 113/193/148 114/194/148 115/195/148 116/196/148 117/197/148 118/198/148 119/199/148 120/200/148 121/201/148 122/202/148 123/203/148 124/204/148 125/205/148 126/206/148 110/207/148
f 60/208/149 114/209/149 113/210/150 59/211/150
f 68/212/151 122/213/151 121/150/109 67/149/109
f 61/214/152 115/215/152 114/209/149 60/208/149
f 69/216/153 123/217/153 122/218/151 68/219/151
f 62/220/154 116/221/154 115/215/152 61/214/152
f 70/222/155 124/223/155 123/217/153 69/216/153
f 63/224/156 117/225/156 116/221/154 62/220/154
f 56/226/157 109/227/157 110/228/158 55/229/158
f 71/230/159 125/231/159 124/223/155 70/222/155
f 64/232/160 118/233/160 117/225/156 63/224/156
f 57/234/161 111/235/161 109/227/157 56/226/157
f 72/236/162 126/237/162 125/231/159 71/230/159
f 65/238/163 119/239/163 118/233/160 64/232/160
f 58/240/164 112/241/164 111/235/161 57/234/161
f 55/229/158 110/228/158 126/237/162 72/236/162
f 66/152/110 120/151/110 119/239/163 65/238/163
f 59/211/150 113/210/150 112/241/164 58/240/164
f 132/148/108 128/153/111 108/242/146 107/243/144
f 127/41/37 36/244/74 20/245/42 129/2/2
f 129/2/2 20/245/42 19/246/41 161/3/3
f 128/153/111 130/132/93 92/247/113 108/242/146
f 134/147/107 132/148/108 107/243/144 106/248/142
f 131/35/33 35/249/72 36/244/74 127/41/37
f 136/146/106 134/147/107 106/248/142 105/250/140
f 133/33/31 34/251/70 35/249/72 131/35/33
f 138/145/105 136/146/106 105/250/140 104/252/138
f 135/31/29 33/253/68 34/251/70 133/33/31
f 140/144/104 138/145/105 104/252/138 103/254/136
f 137/29/27 32/255/66 33/253/68 135/31/29
f 142/143/103 140/144/104 103/254/136 102/256/134
f 139/27/25 31/257/64 32/255/66 137/29/27
f 144/142/102 142/143/103 102/256/134 101/258/132
f 141/25/23 30/259/62 31/257/64 139/27/25
f 146/141/101 144/142/102 101/258/132 100/260/130
f 143/23/21 29/261/60 30/259/62 141/25/23
f 148/140/100 146/141/101 100/260/130 99/262/128
f 145/21/19 28/263/58 29/261/60 143/23/21
f 150/139/99 148/140/100 99/262/128 98/264/126
f 147/19/17 27/265/56 28/263/58 145/21/19
f 152/137/98 150/139/99 98/264/126 97/266/124
f 149/17/15 26/267/54 27/265/56 147/19/17
f 154/138/97 152/137/98 97/266/124 96/268/122
f 151/15/13 25/269/52 26/267/54 149/17/15
f 156/135/96 154/136/97 96/270/122 95/271/120
f 153/14/11 24/272/50 25/269/52 151/15/13
f 158/134/95 156/135/96 95/271/120 94/273/118
f 155/9/9 23/274/48 24/275/50 153/11/11
f 160/133/94 158/134/95 94/273/118 93/276/116
f 157/7/7 22/277/46 23/274/48 155/9/9
f 162/131/92 160/133/94 93/276/116 91/278/114
f 159/5/5 21/279/44 22/277/46 157/7/7
f 130/132/93 162/131/92 91/278/114 92/247/113
f 161/3/3 19/246/41 21/279/44 159/5/5
